<svg width="31" height="36" viewBox="0 0 31 36" fill="none" xmlns="http://www.w3.org/2000/svg">
<path d="M6.12526 25.6729C5.17303 25.8139 3.60553 26.0764 2.56276 24.8809C1.51998 23.6854 0.618226 20.7985 0.221898 18.2185C-0.362946 14.4158 0.217445 11.211 1.85471 9.19493C2.81955 8.00764 4.08573 7.31987 5.51666 7.21037C6.74201 7.11512 8.57299 7.59963 10.3409 10.4497C11.4482 12.2355 12.2906 14.6078 12.6521 16.9577C13.0885 19.7943 13.5137 22.8213 12.0256 23.9066C11.1862 24.5194 10.5836 24.7317 9.15932 25.0744C7.98815 25.3557 7.07823 25.5312 6.12526 25.6729ZM4.43159 28.1128L12.5133 26.4282C13.1961 26.2857 13.7438 26.6652 13.9976 27.8022C14.8304 31.5344 13.6369 36 9.89928 36C6.35979 36 4.00112 31.9229 3.61592 29.7313C3.44002 28.7375 3.69088 28.2665 4.43159 28.1128ZM21.7149 17.8749C20.2906 17.5337 19.688 17.3199 18.8486 16.7072C17.3605 15.6219 17.7858 12.5948 18.2222 9.7582C18.5836 7.40837 19.426 5.03305 20.5333 3.25025C22.2997 0.40016 24.1307 -0.0843547 25.3576 0.0108982C26.787 0.121152 28.0539 0.807423 29.0188 1.99471C30.6575 4.01077 31.2379 7.21562 30.6516 11.0182C30.2545 13.5983 29.3557 16.4754 28.307 17.6807C27.2583 18.886 25.6997 18.6137 24.7445 18.4727C23.7893 18.3317 22.8853 18.1555 21.7149 17.8749ZM26.4419 20.9125L18.3602 19.228C17.6774 19.0855 17.1297 19.465 16.8758 20.602C16.0439 24.3341 17.2373 28.7998 20.9749 28.7998C24.5144 28.7998 26.8731 24.7227 27.2583 22.5311C27.4335 21.5373 27.1826 21.0663 26.4419 20.9125Z" fill="black"/>
</svg>
