<svg width="26" height="26" viewBox="0 0 26 26" fill="none" xmlns="http://www.w3.org/2000/svg">
<path d="M2.91932 2.42432L21.6287 21.1336C21.9837 21.4887 22.1831 21.9702 22.1831 22.4722C22.1831 22.9743 21.9837 23.4558 21.6287 23.8108V23.8108C21.2736 24.1657 20.7921 24.3651 20.2901 24.3651C19.788 24.3651 19.3066 24.1657 18.9515 23.8108L14.3812 19.1618C14.0821 18.8581 13.9143 18.449 13.914 18.0228V17.742C13.914 17.5267 13.8713 17.3136 13.7883 17.1151C13.7053 16.9165 13.5837 16.7364 13.4305 16.5852L12.8405 16.0403C12.6401 15.8555 12.3965 15.724 12.1321 15.658C11.8677 15.5919 11.5909 15.5935 11.3272 15.6625V15.6625C10.9114 15.771 10.4744 15.7689 10.0596 15.6564C9.64489 15.5439 9.26677 15.3249 8.96279 15.0211L4.62455 10.6824C2.05096 8.10877 1.10389 4.22248 2.91932 2.42432Z" stroke="black" stroke-width="2" stroke-linejoin="round"/>
<path d="M10.1563 18.6875L5.0924 23.7798C4.71148 24.1606 4.19492 24.3746 3.6563 24.3746C3.11769 24.3746 2.60113 24.1606 2.22021 23.7798V23.7798C1.83941 23.3989 1.62549 22.8824 1.62549 22.3437C1.62549 21.8051 1.83941 21.2886 2.22021 20.9077L6.50005 16.6562M20.3126 1.625L16.3897 5.54785C16.0878 5.84965 15.8484 6.20796 15.685 6.60232C15.5216 6.99668 15.4376 7.41935 15.4376 7.84621V8.60082C15.4376 8.70759 15.4165 8.81331 15.3757 8.91194C15.3348 9.01058 15.2749 9.10019 15.1994 9.17566L14.6251 9.75L20.3126 1.625ZM16.2501 11.375L16.8244 10.8007C16.8999 10.7251 16.9895 10.6652 17.0881 10.6244C17.1867 10.5835 17.2925 10.5625 17.3992 10.5625H18.1538C18.5807 10.5625 19.0034 10.4784 19.3977 10.315C19.7921 10.1517 20.1504 9.91222 20.4522 9.61035L24.3751 5.6875L16.2501 11.375ZM22.3438 3.65625L18.2813 7.71875L22.3438 3.65625Z" stroke="black" stroke-width="2" stroke-linecap="round" stroke-linejoin="round"/>
</svg>
