<svg width="26" height="26" viewBox="0 0 26 26" fill="none" xmlns="http://www.w3.org/2000/svg">
<path d="M2.4375 13H23.5625" stroke="black" stroke-width="2" stroke-linecap="round" stroke-linejoin="round"/>
<path d="M21.125 7.3125C21.125 6.86377 20.7612 6.5 20.3125 6.5C19.8638 6.5 19.5 6.86377 19.5 7.3125V18.6875C19.5 19.1362 19.8638 19.5 20.3125 19.5C20.7612 19.5 21.125 19.1362 21.125 18.6875V7.3125Z" stroke="black" stroke-width="3" stroke-linecap="round" stroke-linejoin="round"/>
<path d="M6.5 7.3125C6.5 6.86377 6.13623 6.5 5.6875 6.5C5.23877 6.5 4.875 6.86377 4.875 7.3125V18.6875C4.875 19.1362 5.23877 19.5 5.6875 19.5C6.13623 19.5 6.5 19.1362 6.5 18.6875V7.3125Z" stroke="black" stroke-width="3" stroke-linecap="round" stroke-linejoin="round"/>
<path d="M2.4375 10.1562C2.4375 9.93188 2.25562 9.75 2.03125 9.75C1.80688 9.75 1.625 9.93188 1.625 10.1562V15.8438C1.625 16.0681 1.80688 16.25 2.03125 16.25C2.25562 16.25 2.4375 16.0681 2.4375 15.8438V10.1562Z" stroke="black" stroke-width="2" stroke-linecap="round" stroke-linejoin="round"/>
<path d="M24.375 10.1562C24.375 9.93188 24.1931 9.75 23.9688 9.75C23.7444 9.75 23.5625 9.93188 23.5625 10.1562V15.8438C23.5625 16.0681 23.7444 16.25 23.9688 16.25C24.1931 16.25 24.375 16.0681 24.375 15.8438V10.1562Z" stroke="black" stroke-width="2" stroke-linecap="round" stroke-linejoin="round"/>
</svg>
