<svg width="33" height="39" viewBox="0 0 33 39" fill="none" xmlns="http://www.w3.org/2000/svg">
<path d="M16.5287 7.41455C18.2305 7.41455 19.6101 6.08999 19.6101 4.45605C19.6101 2.82212 18.2305 1.49756 16.5287 1.49756C14.8269 1.49756 13.4473 2.82212 13.4473 4.45605C13.4473 6.08999 14.8269 7.41455 16.5287 7.41455Z" stroke="black" stroke-width="2" stroke-linejoin="round"/>
<path d="M12.5407 20.6128C12.7641 19.277 12.8642 17.9857 12.5021 17.0929C12.194 16.3252 11.5238 15.8955 10.7149 15.6026L3.58687 13.3882C2.66245 13.0923 1.79888 12.5968 1.73802 11.6175C1.66099 10.3601 2.81652 9.54655 3.97204 9.8424C3.97204 9.8424 10.7511 12.1456 16.5288 12.1456C22.3064 12.1456 29.0084 9.85276 29.0084 9.85276C30.3951 9.48295 31.3195 10.5184 31.3195 11.6123C31.3195 12.6633 30.4721 13.0331 29.4706 13.383L22.6916 15.7431C22.0753 15.965 21.0738 16.4088 20.6887 17.0878C20.2264 17.8829 20.3035 19.2719 20.5269 20.6076L20.9814 22.7991L23.8633 34.9216C24.079 35.8942 23.3779 36.8032 22.3688 36.9733C21.3596 37.1434 20.5346 36.4822 20.2357 35.5414L17.3422 26.9669C17.2031 26.5557 17.0798 26.1398 16.9725 25.7192L16.5288 23.9825L16.1205 25.5838C15.9911 26.0942 15.8421 26.5991 15.6737 27.0986L12.8311 35.534C12.5229 36.4844 11.7141 37.1427 10.7049 36.9733C9.69575 36.8039 8.97932 35.8202 9.2058 34.9216L12.0861 22.8043L12.5407 20.6128Z" stroke="black" stroke-width="2" stroke-linejoin="round"/>
</svg>
