<svg width="30" height="30" viewBox="0 0 30 30" fill="none" xmlns="http://www.w3.org/2000/svg">
<path d="M2.8125 15H27.1875" stroke="black" stroke-width="2" stroke-linecap="round" stroke-linejoin="round"/>
<path d="M24.375 8.4375C24.375 7.91973 23.9553 7.5 23.4375 7.5C22.9197 7.5 22.5 7.91973 22.5 8.4375V21.5625C22.5 22.0803 22.9197 22.5 23.4375 22.5C23.9553 22.5 24.375 22.0803 24.375 21.5625V8.4375Z" stroke="black" stroke-width="3" stroke-linecap="round" stroke-linejoin="round"/>
<path d="M7.5 8.4375C7.5 7.91973 7.08027 7.5 6.5625 7.5C6.04473 7.5 5.625 7.91973 5.625 8.4375V21.5625C5.625 22.0803 6.04473 22.5 6.5625 22.5C7.08027 22.5 7.5 22.0803 7.5 21.5625V8.4375Z" stroke="black" stroke-width="3" stroke-linecap="round" stroke-linejoin="round"/>
<path d="M2.8125 11.7188C2.8125 11.4599 2.60263 11.25 2.34375 11.25C2.08487 11.25 1.875 11.4599 1.875 11.7188V18.2812C1.875 18.5401 2.08487 18.75 2.34375 18.75C2.60263 18.75 2.8125 18.5401 2.8125 18.2812V11.7188Z" stroke="black" stroke-width="2" stroke-linecap="round" stroke-linejoin="round"/>
<path d="M28.125 11.7188C28.125 11.4599 27.9151 11.25 27.6562 11.25C27.3974 11.25 27.1875 11.4599 27.1875 11.7188V18.2812C27.1875 18.5401 27.3974 18.75 27.6562 18.75C27.9151 18.75 28.125 18.5401 28.125 18.2812V11.7188Z" stroke="black" stroke-width="2" stroke-linecap="round" stroke-linejoin="round"/>
</svg>
