<svg width="26" height="26" viewBox="0 0 26 26" fill="none" xmlns="http://www.w3.org/2000/svg">
<path d="M18.6875 21.1179V3.65625C18.6866 3.33331 18.5579 3.02386 18.3295 2.7955C18.1011 2.56714 17.7917 2.43844 17.4688 2.4375H3.65625C3.33331 2.43844 3.02386 2.56714 2.7955 2.7955C2.56714 3.02386 2.43844 3.33331 2.4375 3.65625V21.5312C2.43911 22.0695 2.65363 22.5852 3.03422 22.9658C3.4148 23.3464 3.93052 23.5609 4.46875 23.5625H21.125" stroke="black" stroke-width="2" stroke-linejoin="round"/>
<path d="M21.125 23.5625C20.4785 23.5625 19.8585 23.3057 19.4014 22.8486C18.9443 22.3915 18.6875 21.7715 18.6875 21.125V6.5H22.3438C22.667 6.5 22.977 6.6284 23.2055 6.85696C23.4341 7.08552 23.5625 7.39552 23.5625 7.71875V21.125C23.5625 21.7715 23.3057 22.3915 22.8486 22.8486C22.3915 23.3057 21.7715 23.5625 21.125 23.5625Z" stroke="black" stroke-width="2" stroke-linejoin="round"/>
<path d="M12.1875 6.5H15.4375M12.1875 9.75H15.4375M5.6875 13H15.4375M5.6875 16.25H15.4375M5.6875 19.5H15.4375" stroke="black" stroke-linecap="round" stroke-linejoin="round"/>
<path d="M8.9375 10.5625H5.6875C5.47201 10.5625 5.26535 10.4769 5.11298 10.3245C4.9606 10.1722 4.875 9.96549 4.875 9.75V6.5C4.875 6.28451 4.9606 6.07785 5.11298 5.92548C5.26535 5.7731 5.47201 5.6875 5.6875 5.6875H8.9375C9.15299 5.6875 9.35965 5.7731 9.51202 5.92548C9.6644 6.07785 9.75 6.28451 9.75 6.5V9.75C9.75 9.96549 9.6644 10.1722 9.51202 10.3245C9.35965 10.4769 9.15299 10.5625 8.9375 10.5625Z" fill="black"/>
</svg>
